<?xml version="1.0" standalone="no"?>
<!DOCTYPE svg PUBLIC "-//W3C//DTD SVG 20010904//EN"
 "http://www.w3.org/TR/2001/REC-SVG-20010904/DTD/svg10.dtd">
<svg version="1.0" xmlns="http://www.w3.org/2000/svg"
 width="630.000000pt" height="630.000000pt" viewBox="0 0 630.000000 630.000000"
 preserveAspectRatio="xMidYMid meet">
<metadata>
Created by potrace 1.14, written by Peter Selinger 2001-2017
</metadata>
<g transform="translate(0.000000,630.000000) scale(0.100000,-0.100000)"
fill="#000000" stroke="none">
<path d="M0 3150 l0 -3150 3150 0 3150 0 0 3150 0 3150 -3150 0 -3150 0 0
-3150z m3628 1141 c103 -1 133 -16 167 -85 28 -55 30 -81 14 -123 -6 -15 -19
-66 -29 -113 -28 -129 -96 -260 -508 -975 -77 -134 -121 -225 -210 -436 -65
-154 -72 -187 -72 -336 0 -92 -4 -144 -14 -167 -19 -45 -151 -183 -198 -207
-81 -41 -182 -8 -233 77 -49 82 -58 144 -51 325 4 111 12 189 25 235 43 162
93 321 122 388 17 39 50 116 74 171 23 55 64 145 91 200 48 96 229 429 244
450 4 6 39 71 78 145 38 74 93 175 122 224 28 49 65 117 82 150 17 34 38 66
47 71 26 16 72 21 121 13 25 -4 83 -7 128 -7z m662 -452 c19 -6 134 -14 255
-19 203 -7 226 -10 295 -35 41 -14 93 -31 115 -37 22 -5 75 -19 118 -29 43
-11 113 -37 155 -58 42 -21 93 -42 112 -46 45 -9 210 -106 262 -153 22 -20 61
-63 86 -97 25 -33 65 -82 89 -109 24 -26 43 -57 43 -69 0 -29 -82 -102 -149
-132 -31 -14 -76 -36 -101 -49 -60 -31 -170 -76 -305 -124 -86 -31 -131 -40
-210 -46 -85 -6 -113 -12 -190 -46 -49 -21 -116 -48 -147 -59 -32 -11 -91 -40
-131 -65 -41 -25 -77 -46 -81 -46 -4 0 -28 -14 -52 -31 -66 -45 -104 -53 -168
-35 -29 9 -70 28 -92 44 -21 16 -64 40 -94 54 -72 32 -90 51 -90 94 0 76 81
174 223 272 38 26 77 53 87 60 16 12 110 52 324 138 70 28 86 40 86 65 0 42
-39 51 -248 59 -224 9 -293 20 -372 60 -97 49 -103 57 -105 138 -2 67 -4 74
-38 112 -70 77 -43 138 71 160 31 6 77 17 102 25 57 17 106 18 150 4z m-2011
-46 c18 -22 20 -34 15 -75 -6 -44 -3 -54 30 -107 43 -70 47 -112 12 -144 -13
-12 -66 -43 -117 -70 -85 -43 -106 -49 -214 -63 -102 -13 -130 -21 -195 -54
-42 -21 -96 -43 -121 -50 -24 -6 -73 -29 -109 -49 -36 -21 -82 -44 -103 -50
-20 -7 -44 -19 -52 -28 -20 -20 -19 -56 3 -77 34 -30 180 -76 309 -96 114 -19
136 -26 219 -71 86 -46 97 -56 151 -130 98 -137 100 -141 83 -190 -25 -69 -50
-81 -203 -94 -99 -8 -172 -8 -278 1 -133 11 -148 14 -202 44 -82 45 -135 60
-259 70 -83 7 -122 16 -175 38 -74 32 -93 37 -231 52 -64 7 -122 22 -185 46
-59 23 -119 38 -171 44 -98 10 -134 25 -143 59 -5 22 3 34 65 91 39 36 158
147 264 247 106 99 220 203 253 229 33 26 80 64 105 84 60 48 224 149 269 165
20 7 59 24 86 38 28 14 97 43 155 65 58 22 125 50 150 61 66 29 151 38 372 40
l197 1 20 -27z"/>
</g>
</svg>
